<svg width="514" height="551" viewBox="0 0 514 551" fill="none" xmlns="http://www.w3.org/2000/svg">
<rect width="226.392" height="277.135" rx="26.994" transform="matrix(1 0 -4.53348e-05 1 153.605 146.102)" fill="#F3F4F6"/>
<path d="M203.312 207.595L311.288 207.597" stroke="#DADDE3" stroke-width="13.497" stroke-linecap="round"/>
<path d="M203.311 234.595L246.027 235.791" stroke="#DADDE3" stroke-width="13.497" stroke-linecap="round"/>
<path d="M203.31 262.787L280.917 262.789" stroke="#DADDE3" stroke-width="13.497" stroke-linecap="round"/>
<path d="M112.125 152.109C114.635 143.357 123.764 138.297 132.515 140.807L204.236 161.372C212.987 163.882 218.048 173.01 215.538 181.762L200.417 234.495C199.115 239.037 195.927 242.801 191.661 244.833L169.601 255.344C165.971 257.073 161.833 257.416 157.967 256.308L103.846 240.789C95.0944 238.279 90.0341 229.15 92.5436 220.399L112.125 152.109Z" fill="#DDD6FF"/>
<path d="M159.331 253.846L196.241 233.767L178.768 227.838C172.825 225.821 166.403 229.183 164.673 235.216L159.331 253.846Z" fill="#C4B4FF"/>
<path d="M147.226 149.312L187.253 160.79C202.569 165.181 211.424 181.157 207.033 196.472L198.504 226.217C196.224 234.165 190.645 240.753 183.181 244.309L173.463 248.938C167.11 251.965 159.869 252.566 153.104 250.626L120.828 241.371C105.513 236.98 96.6574 221.004 101.049 205.689L111.543 169.091C115.935 153.776 131.91 144.92 147.226 149.312Z" stroke="#DDD6FF" stroke-width="8.24241"/>
<path d="M112.125 152.109C114.635 143.357 123.764 138.297 132.515 140.807L204.236 161.372C212.987 163.882 218.048 173.01 215.538 181.762L214.461 185.52L111.048 155.867L112.125 152.109Z" fill="#C4B4FF"/>
<path d="M368.544 229.268C369.07 226.126 373.177 225.253 374.935 227.91L388.467 248.334C388.733 248.737 389.079 249.081 389.483 249.344C389.887 249.607 390.341 249.784 390.817 249.864L414.984 253.917C418.126 254.444 418.999 258.55 416.343 260.309L395.918 273.841C395.515 274.106 395.172 274.452 394.908 274.857C394.645 275.261 394.468 275.715 394.388 276.191L390.335 300.358C389.809 303.5 385.702 304.373 383.943 301.716L370.411 281.292C370.146 280.889 369.8 280.545 369.396 280.282C368.991 280.019 368.537 279.842 368.062 279.762L343.894 275.709C340.752 275.182 339.879 271.076 342.536 269.317L362.961 255.785C363.363 255.52 363.707 255.174 363.97 254.769C364.233 254.365 364.41 253.911 364.49 253.435L368.544 229.268Z" fill="#C4B4FF" stroke="#C4B4FF" stroke-width="7.29363" stroke-linecap="round" stroke-linejoin="round"/>
<path d="M138.735 322.081C139.884 320.41 142.488 321.011 142.788 323.016L145.1 338.439C145.145 338.743 145.252 339.034 145.414 339.294C145.577 339.555 145.791 339.779 146.044 339.953L158.895 348.793C160.566 349.942 159.965 352.545 157.959 352.845L142.537 355.157C142.233 355.202 141.942 355.309 141.681 355.472C141.42 355.634 141.196 355.848 141.022 356.101L132.183 368.952C131.034 370.623 128.43 370.022 128.13 368.017L125.818 352.594C125.773 352.29 125.666 351.999 125.504 351.738C125.342 351.478 125.127 351.254 124.874 351.079L112.023 342.24C110.352 341.091 110.953 338.488 112.959 338.188L128.381 335.876C128.685 335.831 128.976 335.724 129.237 335.561C129.498 335.399 129.722 335.185 129.896 334.932L138.735 322.081Z" fill="#C4B4FF" stroke="#C4B4FF" stroke-width="4.64246" stroke-linecap="round" stroke-linejoin="round"/>
<rect x="198.414" y="398" width="42.7865" height="42.7865" rx="8.55729" fill="#DDD6FF"/>
<rect x="280" y="322" width="31" height="30" rx="4.37283" fill="#DDD6FF"/>
<rect x="348.845" y="98" width="32.1012" height="32.1012" rx="6.42024" transform="rotate(13 348.845 98)" fill="#C4B4FF"/>
</svg>
